# xmcd
#
# Track frame offsets:
# 150
# 17701
# 34099
# 49598
# 74619
# 83470
# 92570
# 113268
# 139022
# 158151
# 172277
#
# Disc length: 2491 seconds
#
#
# Revision: 0
# Processed by: cddbd v1.5.1PL0 Copyright (c) Steve Scherf et al.
# Submitted via: FreeRIP 2.70 
#
DISCID=8309b90b
DTITLE=Ivan Brown - Fortune Wheel
DYEAR=2002
DGENRE=Country
TTITLE0=He's Old He's Six (The Six Song)
TTITLE1=Fortune Wheel
TTITLE2=Dangerous Situation
TTITLE3=Prisoner Without A Plea
TTITLE4=Bop-A-Lena
TTITLE5=That Kind Of Lovin' Knocks Me Out
TTITLE6=Congratulations To Me
TTITLE7=Popeye's Favorite Dream (Bow Legged Woman)
TTITLE8=Rockin' Bones
TTITLE9=Big Fat Woman
TTITLE10=Max's Lullaby (Song About Cowboys)
EXTD=Artist from Austin, Tx. Also the Bass player\nfor Slaid Cleaves.\n
EXTT0=
EXTT1=
EXTT2=
EXTT3=
EXTT4=
EXTT5=
EXTT6=
EXTT7=
EXTT8=
EXTT9=
EXTT10=
PLAYORDER=
